<svg width="21" height="21" viewBox="0 0 21 21" fill="none" xmlns="http://www.w3.org/2000/svg">
<path d="M8.99958 12L19.9996 1M8.99958 12L12.4996 19C12.5435 19.0957 12.6139 19.1769 12.7025 19.2338C12.7912 19.2906 12.8943 19.3209 12.9996 19.3209C13.1049 19.3209 13.208 19.2906 13.2966 19.2338C13.3853 19.1769 13.4557 19.0957 13.4996 19L19.9996 1M8.99958 12L1.99958 8.5C1.90384 8.45613 1.82271 8.38569 1.76583 8.29705C1.70895 8.20842 1.67871 8.10532 1.67871 8C1.67871 7.89468 1.70895 7.79158 1.76583 7.70295C1.82271 7.61431 1.90384 7.54387 1.99958 7.5L19.9996 1" stroke="white" stroke-width="2" stroke-linecap="round" stroke-linejoin="round"/>
</svg>
